<svg xmlns="http://www.w3.org/2000/svg" class="railroad" width="1210" height="2194" viewBox="0 0 1210 2194"><style>svg.railroad{background:var(--rr-bg,#fff);font-family:monospace;font-size:13px}.rr-line{stroke:var(--rr-rule,#334);stroke-width:2;fill:none}.rr-cap{fill:var(--rr-rule,#334)}.rr-term{fill:var(--rr-term,#e8f0ff);stroke:var(--rr-rule,#334);stroke-width:2}.rr-nonterm{fill:var(--rr-nonterm,#fff7e8);stroke:var(--rr-rule,#334);stroke-width:2}.rr-label{fill:var(--rr-ink,#111);text-anchor:middle;dominant-baseline:middle}.rr-comment{fill:var(--rr-muted,#666);font-style:italic;text-anchor:middle;dominant-baseline:middle}.rr-title{fill:var(--rr-title,#113);font-weight:bold;font-size:15px}.rr-legend{fill:var(--rr-legend,#333);font-size:12px}.rr-legend-tok{fill:var(--rr-title,#113);font-weight:bold}a:hover .rr-nonterm{fill:var(--rr-nonterm-hover,#ffe6b3);cursor:pointer}</style><g><g id="kind"><text class="rr-title" x="16" y="31">kind</text><circle class="rr-cap" cx="452" cy="42" r="3"/><path class="rr-line" d="M452 42V56"/><path class="rr-line" d="M452 56V74"/><path class="rr-line" d="M66 74H838"/><path class="rr-line" d="M66 136H838"/><path class="rr-line" d="M452 136V154"/><path class="rr-line" d="M66 74V92"/><rect class="rr-term" x="16" y="92" width="100" height="26" rx="13" ry="13"/><text class="rr-label" x="66" y="105">biginteger</text><path class="rr-line" d="M66 118V136"/><path class="rr-line" d="M192 74V92"/><rect class="rr-term" x="142" y="92" width="100" height="26" rx="13" ry="13"/><text class="rr-label" x="192" y="105">bigdecimal</text><path class="rr-line" d="M192 118V136"/><path class="rr-line" d="M306 74V92"/><rect class="rr-term" x="268" y="92" width="76" height="26" rx="13" ry="13"/><text class="rr-label" x="306" y="105">boolean</text><path class="rr-line" d="M306 118V136"/><path class="rr-line" d="M400 74V92"/><rect class="rr-term" x="370" y="92" width="60" height="26" rx="13" ry="13"/><text class="rr-label" x="400" y="105">float</text><path class="rr-line" d="M400 118V136"/><path class="rr-line" d="M494 74V92"/><rect class="rr-term" x="456" y="92" width="76" height="26" rx="13" ry="13"/><text class="rr-label" x="494" y="105">integer</text><path class="rr-line" d="M494 118V136"/><path class="rr-line" d="M592 74V92"/><rect class="rr-term" x="558" y="92" width="68" height="26" rx="13" ry="13"/><text class="rr-label" x="592" y="105">number</text><path class="rr-line" d="M592 118V136"/><path class="rr-line" d="M686 74V92"/><rect class="rr-term" x="652" y="92" width="68" height="26" rx="13" ry="13"/><text class="rr-label" x="686" y="105">string</text><path class="rr-line" d="M686 118V136"/><path class="rr-line" d="M768 74V92"/><rect class="rr-term" x="746" y="92" width="44" height="26" rx="13" ry="13"/><text class="rr-label" x="768" y="105">top</text><path class="rr-line" d="M768 118V136"/><path class="rr-line" d="M838 74V92"/><rect class="rr-term" x="816" y="92" width="44" height="26" rx="13" ry="13"/><text class="rr-label" x="838" y="105">nil</text><path class="rr-line" d="M838 118V136"/><path class="rr-line" d="M452 154V168"/><circle class="rr-cap" cx="452" cy="168" r="3"/></g><g id="scalar"><text class="rr-title" x="16" y="217">scalar</text><circle class="rr-cap" cx="265" cy="228" r="3"/><path class="rr-line" d="M265 228V242"/><path class="rr-line" d="M265 242V260"/><path class="rr-line" d="M50 260H480"/><path class="rr-line" d="M50 322H480"/><path class="rr-line" d="M265 322V340"/><path class="rr-line" d="M50 260V278"/><a href="#string"><rect class="rr-nonterm" x="16" y="278" width="68" height="26" rx="4" ry="4"/><text class="rr-label" x="50" y="291">string</text></a><path class="rr-line" d="M50 304V322"/><path class="rr-line" d="M140 260V278"/><a href="#exact"><rect class="rr-nonterm" x="110" y="278" width="60" height="26" rx="4" ry="4"/><text class="rr-label" x="140" y="291">exact</text></a><path class="rr-line" d="M140 304V322"/><path class="rr-line" d="M230 260V278"/><a href="#number"><rect class="rr-nonterm" x="196" y="278" width="68" height="26" rx="4" ry="4"/><text class="rr-label" x="230" y="291">number</text></a><path class="rr-line" d="M230 304V322"/><path class="rr-line" d="M316 260V278"/><rect class="rr-term" x="290" y="278" width="52" height="26" rx="13" ry="13"/><text class="rr-label" x="316" y="291">true</text><path class="rr-line" d="M316 304V322"/><path class="rr-line" d="M398 260V278"/><rect class="rr-term" x="368" y="278" width="60" height="26" rx="13" ry="13"/><text class="rr-label" x="398" y="291">false</text><path class="rr-line" d="M398 304V322"/><path class="rr-line" d="M480 260V278"/><rect class="rr-term" x="454" y="278" width="52" height="26" rx="13" ry="13"/><text class="rr-label" x="480" y="291">null</text><path class="rr-line" d="M480 304V322"/><path class="rr-line" d="M265 340V354"/><circle class="rr-cap" cx="265" cy="354" r="3"/></g><g id="string"><text class="rr-title" x="16" y="403">string</text><circle class="rr-cap" cx="74" cy="414" r="3"/><path class="rr-line" d="M74 414V428"/><a href="#DQUOTE"><rect class="rr-nonterm" x="40" y="428" width="68" height="26" rx="4" ry="4"/><text class="rr-label" x="74" y="441">DQUOTE</text></a><path class="rr-line" d="M74 454V472"/><path class="rr-line" d="M74 472V490"/><path class="rr-line" d="M42 490H106"/><path class="rr-line" d="M42 588H106"/><path class="rr-line" d="M74 588V606"/><path class="rr-line" d="M42 490V508"/><path class="rr-line" d="M42 508V526"/><a href="#char"><rect class="rr-nonterm" x="16" y="526" width="52" height="26" rx="4" ry="4"/><text class="rr-label" x="42" y="539">char</text></a><path class="rr-line" d="M42 552V570"/><path class="rr-line" d="M42 561H78"/><path class="rr-line" d="M42 517H78"/><path class="rr-line" d="M78 517V561"/><path class="rr-line" d="M42 570V588"/><path class="rr-line" d="M106 490V508"/><path class="rr-line" d="M106 508V520"/><path class="rr-line" d="M106 520V588"/><path class="rr-line" d="M74 606V624"/><a href="#DQUOTE"><rect class="rr-nonterm" x="40" y="624" width="68" height="26" rx="4" ry="4"/><text class="rr-label" x="74" y="637">DQUOTE</text></a><path class="rr-line" d="M74 650V664"/><circle class="rr-cap" cx="74" cy="664" r="3"/></g><g id="char"><text class="rr-title" x="16" y="713">char</text><circle class="rr-cap" cx="115" cy="724" r="3"/><path class="rr-line" d="M115 724V738"/><path class="rr-line" d="M115 738V756"/><path class="rr-line" d="M62 756H168"/><path class="rr-line" d="M62 862H168"/><path class="rr-line" d="M115 862V880"/><path class="rr-line" d="M62 756V774"/><a href="#unescaped"><rect class="rr-nonterm" x="16" y="774" width="92" height="26" rx="4" ry="4"/><text class="rr-label" x="62" y="787">unescaped</text></a><path class="rr-line" d="M62 800V862"/><path class="rr-line" d="M168 756V774"/><rect class="rr-term" x="153" y="774" width="30" height="26" rx="13" ry="13"/><text class="rr-label" x="168" y="787">\</text><path class="rr-line" d="M168 800V818"/><a href="#escape"><rect class="rr-nonterm" x="134" y="818" width="68" height="26" rx="4" ry="4"/><text class="rr-label" x="168" y="831">escape</text></a><path class="rr-line" d="M168 844V862"/><path class="rr-line" d="M115 880V894"/><circle class="rr-cap" cx="115" cy="894" r="3"/></g><g id="unescaped"><text class="rr-title" x="16" y="943">unescaped</text><circle class="rr-cap" cx="134" cy="954" r="3"/><path class="rr-line" d="M134 954V968"/><path class="rr-line" d="M134 968V986"/><path class="rr-line" d="M46 986H222"/><path class="rr-line" d="M46 1048H222"/><path class="rr-line" d="M134 1048V1066"/><path class="rr-line" d="M46 986V1004"/><rect class="rr-term" x="16" y="1004" width="60" height="26" rx="13" ry="13"/><text class="rr-label" x="46" y="1017">%x0-!</text><path class="rr-line" d="M46 1030V1048"/><path class="rr-line" d="M124 986V1004"/><rect class="rr-term" x="102" y="1004" width="44" height="26" rx="13" ry="13"/><text class="rr-label" x="124" y="1017">#-[</text><path class="rr-line" d="M124 1030V1048"/><path class="rr-line" d="M222 986V1004"/><rect class="rr-term" x="172" y="1004" width="100" height="26" rx="13" ry="13"/><text class="rr-label" x="222" y="1017">]-%x10FFFF</text><path class="rr-line" d="M222 1030V1048"/><path class="rr-line" d="M134 1066V1080"/><circle class="rr-cap" cx="134" cy="1080" r="3"/></g><g id="escape"><text class="rr-title" x="16" y="1129">escape</text><circle class="rr-cap" cx="287" cy="1140" r="3"/><path class="rr-line" d="M287 1140V1154"/><path class="rr-line" d="M287 1154V1172"/><path class="rr-line" d="M50 1172H524"/><path class="rr-line" d="M50 1410H524"/><path class="rr-line" d="M287 1410V1428"/><path class="rr-line" d="M50 1172V1190"/><a href="#DQUOTE"><rect class="rr-nonterm" x="16" y="1190" width="68" height="26" rx="4" ry="4"/><text class="rr-label" x="50" y="1203">DQUOTE</text></a><path class="rr-line" d="M50 1216V1410"/><path class="rr-line" d="M125 1172V1190"/><rect class="rr-term" x="110" y="1190" width="30" height="26" rx="13" ry="13"/><text class="rr-label" x="125" y="1203">\</text><path class="rr-line" d="M125 1216V1410"/><path class="rr-line" d="M181 1172V1190"/><rect class="rr-term" x="166" y="1190" width="30" height="26" rx="13" ry="13"/><text class="rr-label" x="181" y="1203">/</text><path class="rr-line" d="M181 1216V1410"/><path class="rr-line" d="M237 1172V1190"/><rect class="rr-term" x="222" y="1190" width="30" height="26" rx="13" ry="13"/><text class="rr-label" x="237" y="1203">b</text><path class="rr-line" d="M237 1216V1410"/><path class="rr-line" d="M293 1172V1190"/><rect class="rr-term" x="278" y="1190" width="30" height="26" rx="13" ry="13"/><text class="rr-label" x="293" y="1203">f</text><path class="rr-line" d="M293 1216V1410"/><path class="rr-line" d="M349 1172V1190"/><rect class="rr-term" x="334" y="1190" width="30" height="26" rx="13" ry="13"/><text class="rr-label" x="349" y="1203">n</text><path class="rr-line" d="M349 1216V1410"/><path class="rr-line" d="M405 1172V1190"/><rect class="rr-term" x="390" y="1190" width="30" height="26" rx="13" ry="13"/><text class="rr-label" x="405" y="1203">r</text><path class="rr-line" d="M405 1216V1410"/><path class="rr-line" d="M461 1172V1190"/><rect class="rr-term" x="446" y="1190" width="30" height="26" rx="13" ry="13"/><text class="rr-label" x="461" y="1203">t</text><path class="rr-line" d="M461 1216V1410"/><path class="rr-line" d="M524 1172V1190"/><rect class="rr-term" x="509" y="1190" width="30" height="26" rx="13" ry="13"/><text class="rr-label" x="524" y="1203">u</text><path class="rr-line" d="M524 1216V1234"/><a href="#hex"><rect class="rr-nonterm" x="502" y="1234" width="44" height="26" rx="4" ry="4"/><text class="rr-label" x="524" y="1247">hex</text></a><path class="rr-line" d="M524 1260V1278"/><a href="#hex"><rect class="rr-nonterm" x="502" y="1278" width="44" height="26" rx="4" ry="4"/><text class="rr-label" x="524" y="1291">hex</text></a><path class="rr-line" d="M524 1304V1322"/><a href="#hex"><rect class="rr-nonterm" x="502" y="1322" width="44" height="26" rx="4" ry="4"/><text class="rr-label" x="524" y="1335">hex</text></a><path class="rr-line" d="M524 1348V1366"/><a href="#hex"><rect class="rr-nonterm" x="502" y="1366" width="44" height="26" rx="4" ry="4"/><text class="rr-label" x="524" y="1379">hex</text></a><path class="rr-line" d="M524 1392V1410"/><path class="rr-line" d="M287 1428V1442"/><circle class="rr-cap" cx="287" cy="1442" r="3"/></g><g id="hex"><text class="rr-title" x="16" y="1491">hex</text><circle class="rr-cap" cx="120" cy="1502" r="3"/><path class="rr-line" d="M120 1502V1516"/><path class="rr-line" d="M120 1516V1534"/><path class="rr-line" d="M46 1534H194"/><path class="rr-line" d="M46 1596H194"/><path class="rr-line" d="M120 1596V1614"/><path class="rr-line" d="M46 1534V1552"/><a href="#DIGIT"><rect class="rr-nonterm" x="16" y="1552" width="60" height="26" rx="4" ry="4"/><text class="rr-label" x="46" y="1565">DIGIT</text></a><path class="rr-line" d="M46 1578V1596"/><path class="rr-line" d="M124 1534V1552"/><rect class="rr-term" x="102" y="1552" width="44" height="26" rx="13" ry="13"/><text class="rr-label" x="124" y="1565">A-F</text><path class="rr-line" d="M124 1578V1596"/><path class="rr-line" d="M194 1534V1552"/><rect class="rr-term" x="172" y="1552" width="44" height="26" rx="13" ry="13"/><text class="rr-label" x="194" y="1565">a-f</text><path class="rr-line" d="M194 1578V1596"/><path class="rr-line" d="M120 1614V1628"/><circle class="rr-cap" cx="120" cy="1628" r="3"/></g><g id="exact"><text class="rr-title" x="16" y="1677">exact</text><circle class="rr-cap" cx="88" cy="1688" r="3"/><path class="rr-line" d="M88 1688V1702"/><path class="rr-line" d="M88 1702V1720"/><path class="rr-line" d="M71.5 1720H104.5"/><path class="rr-line" d="M71.5 1782H104.5"/><path class="rr-line" d="M88 1782V1800"/><path class="rr-line" d="M71.5 1720V1738"/><rect class="rr-term" x="56.5" y="1738" width="30" height="26" rx="13" ry="13"/><text class="rr-label" x="71.5" y="1751">-</text><path class="rr-line" d="M71.5 1764V1782"/><path class="rr-line" d="M104.5 1720V1738"/><path class="rr-line" d="M104.5 1738V1750"/><path class="rr-line" d="M104.5 1750V1782"/><path class="rr-line" d="M88 1800V1818"/><rect class="rr-term" x="70" y="1818" width="36" height="26" rx="13" ry="13"/><text class="rr-label" x="88" y="1831">0d</text><path class="rr-line" d="M88 1844V1862"/><a href="#digits"><rect class="rr-nonterm" x="54" y="1862" width="68" height="26" rx="4" ry="4"/><text class="rr-label" x="88" y="1875">digits</text></a><path class="rr-line" d="M88 1888V1906"/><path class="rr-line" d="M88 1906V1924"/><path class="rr-line" d="M62 1924H114"/><path class="rr-line" d="M62 2030H114"/><path class="rr-line" d="M88 2030V2048"/><path class="rr-line" d="M62 1924V1942"/><rect class="rr-term" x="47" y="1942" width="30" height="26" rx="13" ry="13"/><text class="rr-label" x="62" y="1955">.</text><path class="rr-line" d="M62 1968V1986"/><a href="#digits"><rect class="rr-nonterm" x="28" y="1986" width="68" height="26" rx="4" ry="4"/><text class="rr-label" x="62" y="1999">digits</text></a><path class="rr-line" d="M62 2012V2030"/><path class="rr-line" d="M114 1924V1942"/><path class="rr-line" d="M114 1942V1954"/><path class="rr-line" d="M114 1954V2030"/><path class="rr-line" d="M88 2048V2066"/><path class="rr-line" d="M88 2066V2084"/><path class="rr-line" d="M58 2084H118"/><path class="rr-line" d="M58 2146H118"/><path class="rr-line" d="M88 2146V2164"/><path class="rr-line" d="M58 2084V2102"/><a href="#exponent"><rect class="rr-nonterm" x="16" y="2102" width="84" height="26" rx="4" ry="4"/><text class="rr-label" x="58" y="2115">exponent</text></a><path class="rr-line" d="M58 2128V2146"/><path class="rr-line" d="M118 2084V2102"/><path class="rr-line" d="M118 2102V2114"/><path class="rr-line" d="M118 2114V2146"/><path class="rr-line" d="M88 2164V2178"/><circle class="rr-cap" cx="88" cy="2178" r="3"/></g><g id="number"><text class="rr-title" x="908" y="31">number</text><circle class="rr-cap" cx="980" cy="42" r="3"/><path class="rr-line" d="M980 42V56"/><path class="rr-line" d="M980 56V74"/><path class="rr-line" d="M963.5 74H996.5"/><path class="rr-line" d="M963.5 136H996.5"/><path class="rr-line" d="M980 136V154"/><path class="rr-line" d="M963.5 74V92"/><rect class="rr-term" x="948.5" y="92" width="30" height="26" rx="13" ry="13"/><text class="rr-label" x="963.5" y="105">-</text><path class="rr-line" d="M963.5 118V136"/><path class="rr-line" d="M996.5 74V92"/><path class="rr-line" d="M996.5 92V104"/><path class="rr-line" d="M996.5 104V136"/><path class="rr-line" d="M980 154V172"/><a href="#digits"><rect class="rr-nonterm" x="946" y="172" width="68" height="26" rx="4" ry="4"/><text class="rr-label" x="980" y="185">digits</text></a><path class="rr-line" d="M980 198V216"/><path class="rr-line" d="M980 216V234"/><path class="rr-line" d="M954 234H1006"/><path class="rr-line" d="M954 340H1006"/><path class="rr-line" d="M980 340V358"/><path class="rr-line" d="M954 234V252"/><rect class="rr-term" x="939" y="252" width="30" height="26" rx="13" ry="13"/><text class="rr-label" x="954" y="265">.</text><path class="rr-line" d="M954 278V296"/><a href="#digits"><rect class="rr-nonterm" x="920" y="296" width="68" height="26" rx="4" ry="4"/><text class="rr-label" x="954" y="309">digits</text></a><path class="rr-line" d="M954 322V340"/><path class="rr-line" d="M1006 234V252"/><path class="rr-line" d="M1006 252V264"/><path class="rr-line" d="M1006 264V340"/><path class="rr-line" d="M980 358V376"/><path class="rr-line" d="M980 376V394"/><path class="rr-line" d="M950 394H1010"/><path class="rr-line" d="M950 456H1010"/><path class="rr-line" d="M980 456V474"/><path class="rr-line" d="M950 394V412"/><a href="#exponent"><rect class="rr-nonterm" x="908" y="412" width="84" height="26" rx="4" ry="4"/><text class="rr-label" x="950" y="425">exponent</text></a><path class="rr-line" d="M950 438V456"/><path class="rr-line" d="M1010 394V412"/><path class="rr-line" d="M1010 412V424"/><path class="rr-line" d="M1010 424V456"/><path class="rr-line" d="M980 474V488"/><circle class="rr-cap" cx="980" cy="488" r="3"/></g><g id="exponent"><text class="rr-title" x="908" y="537">exponent</text><circle class="rr-cap" cx="981.5" cy="548" r="3"/><path class="rr-line" d="M981.5 548V562"/><path class="rr-line" d="M981.5 562V580"/><path class="rr-line" d="M953.5 580H1009.5"/><path class="rr-line" d="M953.5 642H1009.5"/><path class="rr-line" d="M981.5 642V660"/><path class="rr-line" d="M953.5 580V598"/><rect class="rr-term" x="938.5" y="598" width="30" height="26" rx="13" ry="13"/><text class="rr-label" x="953.5" y="611">e</text><path class="rr-line" d="M953.5 624V642"/><path class="rr-line" d="M1009.5 580V598"/><rect class="rr-term" x="994.5" y="598" width="30" height="26" rx="13" ry="13"/><text class="rr-label" x="1009.5" y="611">E</text><path class="rr-line" d="M1009.5 624V642"/><path class="rr-line" d="M981.5 660V678"/><path class="rr-line" d="M981.5 678V696"/><path class="rr-line" d="M951 696H1012"/><path class="rr-line" d="M951 830H1012"/><path class="rr-line" d="M981.5 830V848"/><path class="rr-line" d="M951 696V714"/><path class="rr-line" d="M951 714V732"/><path class="rr-line" d="M923 732H979"/><path class="rr-line" d="M923 794H979"/><path class="rr-line" d="M951 794V812"/><path class="rr-line" d="M923 732V750"/><rect class="rr-term" x="908" y="750" width="30" height="26" rx="13" ry="13"/><text class="rr-label" x="923" y="763">-</text><path class="rr-line" d="M923 776V794"/><path class="rr-line" d="M979 732V750"/><rect class="rr-term" x="964" y="750" width="30" height="26" rx="13" ry="13"/><text class="rr-label" x="979" y="763">+</text><path class="rr-line" d="M979 776V794"/><path class="rr-line" d="M951 812V830"/><path class="rr-line" d="M1012 696V714"/><path class="rr-line" d="M1012 714V726"/><path class="rr-line" d="M1012 726V830"/><path class="rr-line" d="M981.5 848V866"/><a href="#digits"><rect class="rr-nonterm" x="947.5" y="866" width="68" height="26" rx="4" ry="4"/><text class="rr-label" x="981.5" y="879">digits</text></a><path class="rr-line" d="M981.5 892V906"/><circle class="rr-cap" cx="981.5" cy="906" r="3"/></g><g id="digits"><text class="rr-title" x="908" y="955">digits</text><circle class="rr-cap" cx="938" cy="966" r="3"/><path class="rr-line" d="M938 966V980"/><path class="rr-line" d="M938 980V998"/><a href="#DIGIT"><rect class="rr-nonterm" x="908" y="998" width="60" height="26" rx="4" ry="4"/><text class="rr-label" x="938" y="1011">DIGIT</text></a><path class="rr-line" d="M938 1024V1042"/><path class="rr-line" d="M938 1033H978"/><path class="rr-line" d="M938 989H978"/><path class="rr-line" d="M978 989V1033"/><path class="rr-line" d="M938 1042V1056"/><circle class="rr-cap" cx="938" cy="1056" r="3"/></g><g id="ws"><text class="rr-title" x="908" y="1105">ws</text><circle class="rr-cap" cx="1105.25" cy="1116" r="3"/><path class="rr-line" d="M1105.25 1116V1130"/><path class="rr-line" d="M1105.25 1130V1148"/><path class="rr-line" d="M1024.5 1148H1186"/><path class="rr-line" d="M1024.5 1318H1186"/><path class="rr-line" d="M1105.25 1318V1336"/><path class="rr-line" d="M1024.5 1148V1166"/><path class="rr-line" d="M1024.5 1166V1184"/><path class="rr-line" d="M1024.5 1184V1202"/><path class="rr-line" d="M923 1202H1126"/><path class="rr-line" d="M923 1264H1126"/><path class="rr-line" d="M1024.5 1264V1282"/><path class="rr-line" d="M923 1202V1220"/><rect class="rr-term" x="908" y="1220" width="30" height="26" rx="13" ry="13"/><text class="rr-label" x="923" y="1233"> </text><path class="rr-line" d="M923 1246V1264"/><path class="rr-line" d="M986 1202V1220"/><rect class="rr-term" x="964" y="1220" width="44" height="26" rx="13" ry="13"/><text class="rr-label" x="986" y="1233">%x9</text><path class="rr-line" d="M986 1246V1264"/><path class="rr-line" d="M1056 1202V1220"/><rect class="rr-term" x="1034" y="1220" width="44" height="26" rx="13" ry="13"/><text class="rr-label" x="1056" y="1233">%xA</text><path class="rr-line" d="M1056 1246V1264"/><path class="rr-line" d="M1126 1202V1220"/><rect class="rr-term" x="1104" y="1220" width="44" height="26" rx="13" ry="13"/><text class="rr-label" x="1126" y="1233">%xD</text><path class="rr-line" d="M1126 1246V1264"/><path class="rr-line" d="M1024.5 1282V1300"/><path class="rr-line" d="M1024.5 1291H1158"/><path class="rr-line" d="M1024.5 1175H1158"/><path class="rr-line" d="M1158 1175V1291"/><path class="rr-line" d="M1024.5 1300V1318"/><path class="rr-line" d="M1186 1148V1166"/><path class="rr-line" d="M1186 1166V1178"/><path class="rr-line" d="M1186 1178V1318"/><path class="rr-line" d="M1105.25 1336V1350"/><circle class="rr-cap" cx="1105.25" cy="1350" r="3"/></g><g id="ALPHA"><text class="rr-title" x="908" y="1399">ALPHA</text><circle class="rr-cap" cx="965" cy="1410" r="3"/><path class="rr-line" d="M965 1410V1424"/><path class="rr-line" d="M965 1424V1442"/><path class="rr-line" d="M930 1442H1000"/><path class="rr-line" d="M930 1504H1000"/><path class="rr-line" d="M965 1504V1522"/><path class="rr-line" d="M930 1442V1460"/><rect class="rr-term" x="908" y="1460" width="44" height="26" rx="13" ry="13"/><text class="rr-label" x="930" y="1473">A-Z</text><path class="rr-line" d="M930 1486V1504"/><path class="rr-line" d="M1000 1442V1460"/><rect class="rr-term" x="978" y="1460" width="44" height="26" rx="13" ry="13"/><text class="rr-label" x="1000" y="1473">a-z</text><path class="rr-line" d="M1000 1486V1504"/><path class="rr-line" d="M965 1522V1536"/><circle class="rr-cap" cx="965" cy="1536" r="3"/></g><g id="DIGIT"><text class="rr-title" x="908" y="1585">DIGIT</text><circle class="rr-cap" cx="930" cy="1596" r="3"/><path class="rr-line" d="M930 1596V1610"/><rect class="rr-term" x="908" y="1610" width="44" height="26" rx="13" ry="13"/><text class="rr-label" x="930" y="1623">0-9</text><path class="rr-line" d="M930 1636V1650"/><circle class="rr-cap" cx="930" cy="1650" r="3"/></g><g id="DQUOTE"><text class="rr-title" x="908" y="1699">DQUOTE</text><circle class="rr-cap" cx="923" cy="1710" r="3"/><path class="rr-line" d="M923 1710V1724"/><rect class="rr-term" x="908" y="1724" width="30" height="26" rx="13" ry="13"/><text class="rr-label" x="923" y="1737">&quot;</text><path class="rr-line" d="M923 1750V1764"/><circle class="rr-cap" cx="923" cy="1764" r="3"/></g></g></svg>
