<svg xmlns="http://www.w3.org/2000/svg" class="av" viewBox="0 0 968 222" width="968" height="222" role="img" aria-label="Value lattice at $: 805 value(s) placed">
<style>.av{font-family:ui-monospace,Menlo,Consolas,monospace;font-size:13px}.av-t{fill:var(--av-ink,#1f2328)}.av-m{fill:var(--av-muted,#6e7781)}.av-box{fill:var(--av-bg,#f6f8fa);stroke:var(--av-rule,#8c959f);stroke-width:1}.av-cell{fill:var(--av-bg,#f6f8fa);stroke:var(--av-rule-faint,#d0d7de);stroke-width:1}.av-direct{fill:var(--av-ink,#1f2328);stroke:var(--av-rule-faint,#d0d7de);stroke-width:1}.av-closure{fill:var(--av-closure,#9ec5fe);stroke:var(--av-rule-faint,#d0d7de);stroke-width:1}.av-unmirrored{fill:var(--av-warn,#e3b341);stroke:var(--av-rule-faint,#d0d7de);stroke-width:1}.av-line{stroke:var(--av-rule,#8c959f);stroke-width:1;fill:none}.av-up{stroke:var(--av-alert,#d1242f);stroke-width:1.5;fill:none;stroke-dasharray:4 3}.av-dot{fill:var(--av-ink,#1f2328)}.av-hole{fill:var(--av-bg,#f6f8fa);stroke:var(--av-rule-faint,#d0d7de);stroke-width:1}.av-bar{fill:var(--av-bar,#57606a)}</style>
<path d="M488 34V51H64V68" class="av-line"/>
<path d="M488 34V51H152V68" class="av-line"/>
<path d="M488 34V51H384V68" class="av-line"/>
<path d="M384 94V111H240V128" class="av-line"/>
<path d="M384 94V111H336V128" class="av-line"/>
<path d="M384 94V111H416V128" class="av-line"/>
<path d="M384 94V111H520V128" class="av-line"/>
<path d="M488 34V51H632V68" class="av-line"/>
<path d="M488 34V51H720V68" class="av-line"/>
<path d="M488 34V51H776V68" class="av-line"/>
<path d="M488 34V51H824V68" class="av-line"/>
<path d="M488 34V51H904V68" class="av-line"/>
<path d="M64 94V171H488V188" class="av-line"/>
<path d="M152 94V171H488V188" class="av-line"/>
<path d="M240 154V171H488V188" class="av-line"/>
<path d="M336 154V171H488V188" class="av-line"/>
<path d="M416 154V171H488V188" class="av-line"/>
<path d="M520 154V171H488V188" class="av-line"/>
<path d="M632 94V171H488V188" class="av-line"/>
<path d="M720 94V171H488V188" class="av-line"/>
<path d="M776 94V171H488V188" class="av-line"/>
<path d="M824 94V171H488V188" class="av-line"/>
<path d="M904 94V171H488V188" class="av-line"/>
<rect x="468" y="8" width="40" height="26" class="av-cell"/>
<text x="488" y="26" text-anchor="middle"><tspan class="av-t">any</tspan><tspan class="av-m"></tspan></text>
<rect x="8" y="68" width="112" height="26" class="av-box"/>
<text x="64" y="86" text-anchor="middle"><tspan class="av-t">string</tspan><tspan class="av-m"> (618)</tspan></text>
<rect x="128" y="68" width="48" height="26" class="av-cell"/>
<text x="152" y="86" text-anchor="middle"><tspan class="av-t">path</tspan><tspan class="av-m"></tspan></text>
<rect x="352" y="68" width="64" height="26" class="av-cell"/>
<text x="384" y="86" text-anchor="middle"><tspan class="av-t">number</tspan><tspan class="av-m"></tspan></text>
<rect x="576" y="68" width="112" height="26" class="av-box"/>
<text x="632" y="86" text-anchor="middle"><tspan class="av-t">boolean</tspan><tspan class="av-m"> (96)</tspan></text>
<rect x="696" y="68" width="48" height="26" class="av-cell"/>
<text x="720" y="86" text-anchor="middle"><tspan class="av-t">null</tspan><tspan class="av-m"></tspan></text>
<rect x="756" y="68" width="40" height="26" class="av-cell"/>
<text x="776" y="86" text-anchor="middle"><tspan class="av-t">map</tspan><tspan class="av-m"></tspan></text>
<rect x="800" y="68" width="48" height="26" class="av-cell"/>
<text x="824" y="86" text-anchor="middle"><tspan class="av-t">list</tspan><tspan class="av-m"></tspan></text>
<rect x="856" y="68" width="96" height="26" class="av-cell"/>
<text x="904" y="86" text-anchor="middle"><tspan class="av-t">constraint</tspan><tspan class="av-m"></tspan></text>
<rect x="184" y="128" width="112" height="26" class="av-box"/>
<text x="240" y="146" text-anchor="middle"><tspan class="av-t">integer</tspan><tspan class="av-m"> (91)</tspan></text>
<rect x="308" y="128" width="56" height="26" class="av-cell"/>
<text x="336" y="146" text-anchor="middle"><tspan class="av-t">float</tspan><tspan class="av-m"></tspan></text>
<rect x="368" y="128" width="96" height="26" class="av-cell"/>
<text x="416" y="146" text-anchor="middle"><tspan class="av-t">biginteger</tspan><tspan class="av-m"></tspan></text>
<rect x="472" y="128" width="96" height="26" class="av-cell"/>
<text x="520" y="146" text-anchor="middle"><tspan class="av-t">bigdecimal</tspan><tspan class="av-m"></tspan></text>
<rect x="468" y="188" width="40" height="26" class="av-cell"/>
<text x="488" y="206" text-anchor="middle"><tspan class="av-t">nil</tspan><tspan class="av-m"></tspan></text>
</svg>
