<svg xmlns="http://www.w3.org/2000/svg" class="av" viewBox="0 0 388 308" width="388" height="308" role="img" aria-label="Document tree at $: 14 keys to depth 3">
<style>.av{font-family:ui-monospace,Menlo,Consolas,monospace;font-size:13px}.av-t{fill:var(--av-ink,#1f2328)}.av-m{fill:var(--av-muted,#6e7781)}.av-box{fill:var(--av-bg,#f6f8fa);stroke:var(--av-rule,#8c959f);stroke-width:1}.av-cell{fill:var(--av-bg,#f6f8fa);stroke:var(--av-rule-faint,#d0d7de);stroke-width:1}.av-direct{fill:var(--av-ink,#1f2328);stroke:var(--av-rule-faint,#d0d7de);stroke-width:1}.av-closure{fill:var(--av-closure,#9ec5fe);stroke:var(--av-rule-faint,#d0d7de);stroke-width:1}.av-unmirrored{fill:var(--av-warn,#e3b341);stroke:var(--av-rule-faint,#d0d7de);stroke-width:1}.av-line{stroke:var(--av-rule,#8c959f);stroke-width:1;fill:none}.av-up{stroke:var(--av-alert,#d1242f);stroke-width:1.5;fill:none;stroke-dasharray:4 3}.av-dot{fill:var(--av-ink,#1f2328)}.av-hole{fill:var(--av-bg,#f6f8fa);stroke:var(--av-rule-faint,#d0d7de);stroke-width:1}.av-bar{fill:var(--av-bar,#57606a)}</style>
<text x="4" y="14" class="av-t">$</text>
<path d="M8 20V30H26" class="av-line"/>
<text x="28" y="34" class="av-t">pipeline</text>
<path d="M32 40V50H50" class="av-line"/>
<text x="52" y="54" class="av-t">jobs</text>
<path d="M56 60V70H74" class="av-line"/>
<text x="76" y="74"><tspan class="av-t">audit</tspan><tspan class="av-m"> (4)</tspan></text>
<path d="M56 60V90H74" class="av-line"/>
<text x="76" y="94"><tspan class="av-t">extract</tspan><tspan class="av-m"> (4)</tspan></text>
<path d="M56 60V110H74" class="av-line"/>
<text x="76" y="114"><tspan class="av-t">load</tspan><tspan class="av-m"> (4)</tspan></text>
<path d="M56 60V130H74" class="av-line"/>
<text x="76" y="134"><tspan class="av-t">transform</tspan><tspan class="av-m"> (4)</tspan></text>
<path d="M8 20V150H26" class="av-line"/>
<text x="28" y="154" class="av-t">spec</text>
<path d="M32 160V170H50" class="av-line"/>
<text x="52" y="174" class="av-t">Job</text>
<path d="M56 180V190H74" class="av-line"/>
<text x="76" y="194"><tspan class="av-t">cmd</tspan><tspan class="av-m"> string</tspan></text>
<path d="M56 180V210H74" class="av-line"/>
<text x="76" y="214"><tspan class="av-t">fedBy</tspan><tspan class="av-m"> rel({&quot;kind&quot;:&quot;job&quot;})</tspan></text>
<path d="M56 180V230H74" class="av-line"/>
<text x="76" y="234"><tspan class="av-t">feeds</tspan><tspan class="av-m"> rel({&quot;kind&quot;:&quot;job&quot;})&amp;acyclic()...</tspan></text>
<path d="M56 180V250H74" class="av-line"/>
<text x="76" y="254"><tspan class="av-t">kind</tspan><tspan class="av-m"> &quot;job&quot;</tspan></text>
<path d="M32 160V270H50" class="av-line"/>
<text x="52" y="274" class="av-t">JobShape</text>
<path d="M56 280V290H74" class="av-line"/>
<text x="76" y="294"><tspan class="av-t">kind</tspan><tspan class="av-m"> &quot;job&quot;</tspan></text>
</svg>
